<svg height="100pt" viewBox="0 0 100 100" width="100pt" xmlns="http://www.w3.org/2000/svg"><path d="m46.644531 191.304688c14.972657 2.542968 30.335938-1.097657 42.574219-10.089844 12.238281-8.992188 20.300781-22.566406 22.34375-37.617188.339844-2.480468.503906-4.988281.488281-7.492187 0-30.929688-25.070312-56-56-56-30.925781 0-55.9999998 25.070312-55.9999998 56 .0117188 4.730469.6015628 9.441406 1.7617188 14.03125 5.53125 21.355469 23.082031 37.472656 44.832031 41.167969zm9.40625-79.199219c13.253907 0 24 10.742187 24 24 0 13.253906-10.746093 24-24 24-13.253906 0-24-10.746094-24-24 0-13.257813 10.746094-24 24-24zm0 0"/><path d="m296.050781 88.105469c0 8.835937-7.164062 16-16 16-8.835937 0-16-7.164063-16-16 0-8.839844 7.164063-16 16-16 8.835938 0 16 7.160156 16 16zm0 0"/><path d="m319.523438 184.351562c-3.632813 1.46875-7.347657 2.726563-11.128907 3.769532-1.183593.335937-2.398437.597656-3.566406.894531-2.921875.710937-5.863281 1.289063-8.847656 1.75-1.207031.1875-2.402344.394531-3.609375.539063-4.085938.507812-8.199219.773437-12.320313.800781-3.117187 0-6.207031-.140625-9.261719-.417969-1.015624-.089844-2.007812-.265625-3.023437-.382812-2.019531-.242188-4-.464844-6.011719-.800782-1.214844-.214844-2.398437-.519531-3.589844-.800781-1.746093-.367187-3.488281-.71875-5.199218-1.175781-1.265625-.335938-2.480469-.761719-3.722656-1.136719-1.597657-.496094-3.199219-.96875-4.796876-1.535156-1.273437-.457031-2.496093-.992188-3.746093-1.496094-1.488281-.609375-2.976563-1.199219-4.429688-1.863281-1.242187-.578125-2.402343-1.214844-3.65625-1.832032-1.402343-.71875-2.800781-1.425781-4.160156-2.199218-1.203125-.679688-2.363281-1.417969-3.53125-2.144532-1.308594-.800781-2.613281-1.601562-3.886719-2.503906-1.144531-.800781-2.253906-1.601562-3.367187-2.457031s-2.398438-1.832031-3.617188-2.800781c-1.214843-.96875-2.128906-1.808594-3.199219-2.734375-1.070312-.929688-2.253906-2.023438-3.351562-3.082031-1.097656-1.054688-1.976562-1.984376-2.945312-3.007813s-2.070313-2.207031-3.0625-3.359375c-.992188-1.152344-1.816407-2.136719-2.695313-3.199219-.882813-1.0625-1.875-2.398437-2.777344-3.640625-.902343-1.238281-1.601562-2.289062-2.398437-3.457031-.800782-1.167969-1.671875-2.574219-2.464844-3.886719s-1.457031-2.398437-2.136719-3.671875c-.679687-1.273437-1.457031-2.742187-2.144531-4.136719-.625-1.261718-1.238281-2.535156-1.816406-3.832031-.640625-1.445312-1.222656-2.917969-1.808594-4.40625-.511719-1.3125-1.023438-2.625-1.476562-4-.53125-1.527343-.984376-3.089843-1.441407-4.65625-.398437-1.351562-.800781-2.703125-1.144531-4.089843-.113281-.445313-.265625-.863282-.367188-1.3125h-12.128906c-2.144531.003906-4.203125.867187-5.703125 2.402343l-33.984375 33.992188c-.113281.648437-.289062 1.269531-.425781 1.917969-.214844 1.082031-.4375 2.160156-.703125 3.199218-.261719 1.042969-.535156 1.984375-.800781 2.96875-.261719.984375-.65625 2.191406-1.03125 3.265625-.328125.925781-.6875 1.839844-1.046875 2.742188-.433594 1.082031-.855469 2.160156-1.335938 3.203125-.402344.871094-.800781 1.710937-1.257812 2.558594-.527344 1.039062-1.046875 2.078124-1.597656 3.085937-.464844.800781-.96875 1.601563-1.464844 2.402344-.617188.984375-1.214844 1.960937-1.871094 2.910156-.546875.800781-1.128906 1.546875-1.695312 2.304687-.683594.914063-1.355469 1.816407-2.074219 2.6875-.71875.871094-1.289063 1.480469-1.945313 2.207032-.652344.730468-1.460937 1.648437-2.238281 2.402344-.777344.75-1.449219 1.390624-2.175781 2.070312-.726563.679688-1.601563 1.488281-2.398438 2.191406-.800781.707032-1.601562 1.296875-2.402344 1.9375-.800781.640625-1.640624 1.3125-2.488281 1.929688-.847656.613281-1.78125 1.191406-2.679687 1.773437-.894532.585938-1.6875 1.128907-2.566406 1.65625-.882813.527344-1.945313 1.074219-2.929688 1.601563s-1.71875.953125-2.605469 1.382812c-1.035156.496094-2.113281.929688-3.203125 1.382813-.878906.371093-1.734375.800781-2.628906 1.113281-1.121094.425781-2.273438.800781-3.417969 1.136719-.878906.28125-1.742187.601562-2.640625.847656-1.222656.34375-2.480468.601563-3.726562.878906-.847656.183594-1.671875.417969-2.527344.578125-1.433594.261719-2.898438.429688-4.351562.605469-.699219.089844-1.386719.226563-2.089844.289063-2.191406.261718-4.402344.394531-6.632813.394531-2.476562-.015625-4.953125-.15625-7.414062-.425781-.714844-.070313-1.417969-.175782-2.121094-.265626-1.839844-.25-3.660156-.5625-5.457031-.941406-.648438-.136718-1.292969-.257812-1.933594-.417968-2.335938-.546876-4.640625-1.21875-6.90625-2.007813-.277344-.09375-.550781-.222656-.800781-.320313-1.980469-.726562-3.917969-1.542968-5.820313-2.398437-.632812-.296875-1.257812-.609375-1.882812-.921875-1.65625-.839844-3.277344-1.734375-4.855469-2.6875-.496094-.296875-.992187-.574219-1.472656-.878906-2-1.273438-3.929688-2.636719-5.789063-4.089844-.363281-.277344-.699218-.589844-1.050781-.878906-1.496094-1.222656-2.949219-2.511719-4.351563-3.855469-.503906-.488281-1.007812-.984375-1.503906-1.488281-1.34375-1.363282-2.632812-2.785156-3.863281-4.265625-.242187-.285157-.511719-.535157-.7460938-.796875v242.640625h175.9687498c.960938-.003907 1.910157.167969 2.808594.503906l62.71875 23.496094h78.472656v-263.9375h-.085937zm-279.472657 223.753907h-16c-4.417969 0-8-3.582031-8-8 0-4.421875 3.582031-8 8-8h16c4.417969 0 8 3.578125 8 8 0 4.417969-3.582031 8-8 8zm24-168c0-4.421875 3.582031-8 8-8h176c4.417969 0 8 3.578125 8 8v64c0 4.417969-3.582031 8-8 8h-176c-4.417969 0-8-3.582031-8-8zm8 80h176c4.417969 0 8 3.578125 8 8 0 4.417969-3.582031 8-8 8h-176c-4.417969 0-8-3.582031-8-8 0-4.421875 3.582031-8 8-8zm224 88h-224c-4.417969 0-8-3.582031-8-8 0-4.421875 3.582031-8 8-8h224c4.417969 0 8 3.578125 8 8 0 4.417969-3.582031 8-8 8zm0 0"/><path d="m48.050781 440.105469h80v8h-80zm0 0"/><path d="m64.050781 136.105469c0 4.417969-3.582031 8-8 8s-8-3.582031-8-8c0-4.421875 3.582031-8 8-8s8 3.578125 8 8zm0 0"/><path d="m336.050781 240.105469h16v80h-16zm0 0"/><path d="m80.050781 248.105469h160v48h-160zm0 0"/><path d="m368.050781 324.199219 66.535157 51.90625h13.464843v-192h-13.464843l-66.535157 51.902343zm56-116.09375c0-4.421875 3.582031-8 8-8s8 3.578125 8 8v144c0 4.417969-3.582031 8-8 8s-8-3.582031-8-8zm0 0"/><path d="m368.050781 88.105469c.039063-33.226563-18.636719-63.640625-48.289062-78.636719-29.648438-14.992188-65.214844-12.007812-91.953125 7.71875-26.738282 19.722656-40.085938 52.824219-34.507813 85.578125.445313 2.648437 1 5.257813 1.671875 7.816406 7.886719 30.34375 31.410156 54.148438 61.65625 62.402344 7.632813 2.078125 15.511719 3.128906 23.421875 3.121094 23.351563.039062 45.757813-9.21875 62.269531-25.730469 16.511719-16.511719 25.773438-38.921875 25.730469-62.269531zm-16-8c4.417969 0 8 3.578125 8 8 0 4.417969-3.582031 8-8 8h-16c-4.417969 0-8-3.582031-8-8 0-4.421875 3.582031-8 8-8zm-38.054687-37.257813 11.3125-11.3125c2.007812-2.078125 4.980468-2.914062 7.777344-2.179687 2.800781.730469 4.984374 2.914062 5.714843 5.710937.734375 2.796875-.101562 5.773438-2.179687 7.78125l-11.3125 11.3125c-3.140625 3.03125-8.128906 2.988282-11.214844-.097656s-3.128906-8.074219-.097656-11.214844zm-41.945313-26.742187c0-4.421875 3.582031-8 8-8s8 3.578125 8 8v16c0 4.417969-3.582031 8-8 8s-8-3.582031-8-8zm-48.566406 15.429687c3.125-3.121094 8.1875-3.121094 11.3125 0l11.3125 11.3125c2.078125 2.007813 2.910156 4.984375 2.179687 7.78125-.730468 2.796875-2.917968 4.980469-5.714843 5.710938-2.796875.734375-5.769531-.101563-7.777344-2.179688l-11.3125-11.3125c-3.125-3.125-3.125-8.1875 0-11.3125zm-15.433594 64.570313c-4.417969 0-8-3.582031-8-8 0-4.421875 3.582031-8 8-8h16c4.417969 0 8 3.578125 8 8 0 4.417969-3.582031 8-8 8zm38.058594 37.253906-11.3125 11.3125c-3.140625 3.03125-8.128906 2.988281-11.214844-.097656-3.085937-3.085938-3.128906-8.074219-.097656-11.214844l11.3125-11.3125c3.136719-3.03125 8.128906-2.988281 11.214844.097656 3.085937 3.085938 3.128906 8.074219.097656 11.214844zm41.941406 26.746094c0 4.417969-3.582031 8-8 8s-8-3.582031-8-8v-16c0-4.421875 3.582031-8 8-8s8 3.578125 8 8zm-8-40c-17.671875 0-32-14.328125-32-32 0-17.675781 14.328125-32 32-32 17.675781 0 32 14.324219 32 32 0 17.671875-14.324219 32-32 32zm56.570313 24.566406c-3.125 3.121094-8.1875 3.121094-11.3125 0l-11.3125-11.3125c-3.03125-3.140625-2.988282-8.128906.097656-11.214844 3.085938-3.085937 8.074219-3.128906 11.214844-.097656l11.3125 11.3125c3.121094 3.125 3.121094 8.1875 0 11.3125zm0 0"/></svg>
